name C:\Users\r0593348\3dpredictsim\Results\batch_windlass\Pog_s1_tmt_bCst_d05_k500_WL40_ig24_pas.mot
datacolumns 128
datarows 4
range 0.54617873 0.57894946
endheader
time	pelvis_tilt	pelvis_list	pelvis_rotation	pelvis_tx	pelvis_ty	pelvis_tz	hip_flexion_l	hip_adduction_l	hip_rotation_l	hip_flexion_r	hip_adduction_r	hip_rotation_r	knee_angle_l	knee_angle_r	ankle_angle_l	ankle_angle_r	subtalar_angle_l	subtalar_angle_r	tmt_angle_l	tmt_angle_r	mtp_angle_l	mtp_angle_r	lumbar_extension	lumbar_bending	lumbar_rotation	arm_flex_l	arm_add_l	arm_rot_l	arm_flex_r	arm_add_r	arm_rot_r	elbow_flex_l	elbow_flex_r	pro_sup_l	pro_sup_r	glut_med1_l/activation	glut_med2_l/activation	glut_med3_l/activation	glut_min1_l/activation	glut_min2_l/activation	glut_min3_l/activation	semimem_l/activation	semiten_l/activation	bifemlh_l/activation	bifemsh_l/activation	sar_l/activation	add_long_l/activation	add_brev_l/activation	add_mag1_l/activation	add_mag2_l/activation	add_mag3_l/activation	tfl_l/activation	pect_l/activation	grac_l/activation	glut_max1_l/activation	glut_max2_l/activation	glut_max3_l/activation	iliacus_l/activation	psoas_l/activation	quad_fem_l/activation	gem_l/activation	peri_l/activation	rect_fem_l/activation	vas_med_l/activation	vas_int_l/activation	vas_lat_l/activation	med_gas_l/activation	lat_gas_l/activation	soleus_l/activation	tib_post_l/activation	flex_dig_l/activation	flex_hal_l/activation	tib_ant_l/activation	per_brev_l/activation	per_long_l/activation	per_tert_l/activation	ext_dig_l/activation	ext_hal_l/activation	ercspn_l/activation	intobl_l/activation	extobl_l/activation	glut_med1_r/activation	glut_med2_r/activation	glut_med3_r/activation	glut_min1_r/activation	glut_min2_r/activation	glut_min3_r/activation	semimem_r/activation	semiten_r/activation	bifemlh_r/activation	bifemsh_r/activation	sar_r/activation	add_long_r/activation	add_brev_r/activation	add_mag1_r/activation	add_mag2_r/activation	add_mag3_r/activation	tfl_r/activation	pect_r/activation	grac_r/activation	glut_max1_r/activation	glut_max2_r/activation	glut_max3_r/activation	iliacus_r/activation	psoas_r/activation	quad_fem_r/activation	gem_r/activation	peri_r/activation	rect_fem_r/activation	vas_med_r/activation	vas_int_r/activation	vas_lat_r/activation	med_gas_r/activation	lat_gas_r/activation	soleus_r/activation	tib_post_r/activation	flex_dig_r/activation	flex_hal_r/activation	tib_ant_r/activation	per_brev_r/activation	per_long_r/activation	per_tert_r/activation	ext_dig_r/activation	ext_hal_r/activation	ercspn_r/activation	intobl_r/activation	extobl_r/activation	
          0.54617873	         -2.92154776	          1.55277365	         -5.75849662	          0.68272342	          0.86008413	          0.00193169	         31.44748497	          1.96308908	         -3.72696640	        -17.39443117	         -1.37090676	          7.59092129	        -18.25168799	        -10.40148778	          3.13693339	          0.26817515	          2.48314934	         13.30501197	         -0.30998900	        -11.74406622	          0.78253205	         30.69491436	         -0.92469119	          0.03991396	          1.86730729	         -8.81644433	        -13.58684457	         11.84806230	          5.55592436	        -13.47753664	         16.76596592	         14.68951725	         34.60048607	         86.51662706	         86.51662706	          0.05000020	          0.05000020	          0.05910292	          0.05000014	          0.05000018	          0.05000050	          0.05728353	          0.05910300	          0.19322551	          0.05639273	          0.05000137	          0.08762869	          0.11945333	          0.15566538	          0.15582198	          0.14466793	          0.05000096	          0.05000547	          0.05910326	          0.05910305	          0.10886778	          0.11423483	          0.06433855	          0.06408609	          0.20584542	          0.05000024	          0.05000031	          0.05195567	          0.12453366	          0.13154493	          0.10409931	          0.06136097	          0.05910311	          0.05000071	          0.05000007	          0.05910344	          0.05910335	          0.47706998	          0.32107638	          0.18163568	          0.11619707	          0.52113717	          0.13086841	          0.05046954	          0.09532654	          0.10984986	          0.25122006	          0.08258349	          0.05000006	          0.27094121	          0.17755662	          0.08259136	          0.05000108	          0.05000016	          0.05000012	          0.06550214	          0.06986751	          0.14765824	          0.05667264	          0.05000106	          0.05000126	          0.05000073	          0.25738508	          0.08572005	          0.05000050	          0.05000125	          0.05000084	          0.05000064	          0.30848857	          0.51494610	          0.05000011	          0.05000042	          0.05000012	          0.24473845	          0.11359737	          0.12076077	          0.07405470	          0.25518470	          0.32935916	          0.19760484	          0.18707745	          0.16833658	          0.23321097	          0.05000003	          0.14922317	          0.19574601	          0.05000016	          0.05000010	          0.05000017	          0.05000000	          0.05000003	          0.05000002	
          0.55710231	         -2.90912317	          1.61750272	         -5.97713741	          0.69970114	          0.85912801	          0.00171306	         30.81064485	          2.34835269	         -3.52406882	        -17.19356184	         -1.63024238	          7.38278850	        -17.85810205	        -12.33948400	          2.74395359	         -0.87824905	          1.98303917	         14.17293999	         -0.38455284	        -12.43235865	          0.96524309	         31.41664836	         -0.69500395	         -0.19392176	          1.94473873	         -9.93739768	        -13.58323363	         11.66076693	          5.22626217	        -13.51337869	         16.96640683	         14.67139615	         35.68094534	         86.51662706	         86.51662706	          0.05910294	          0.05910301	          0.05000008	          0.05910310	          0.05910305	          0.05653129	          0.05000008	          0.05000009	          0.18446734	          0.05000005	          0.05000029	          0.09761695	          0.22156062	          0.13169048	          0.20215306	          0.15638540	          0.05000010	          0.08257633	          0.05000052	          0.05000023	          0.09210019	          0.18053428	          0.05910295	          0.05421598	          0.35341715	          0.13892620	          0.12022593	          0.06986297	          0.22715085	          0.22274986	          0.18824217	          0.05191044	          0.05000038	          0.05278842	          0.05000005	          0.05000052	          0.05000070	          0.65168802	          0.27162458	          0.15366037	          0.45572223	          0.59134973	          0.28910394	          0.05000002	          0.08064445	          0.09293091	          0.21252744	          0.06986409	          0.05000003	          0.22921118	          0.15020957	          0.06987077	          0.05000068	          0.05000008	          0.05000007	          0.05541361	          0.05910668	          0.19217040	          0.29311433	          0.08663231	          0.05000214	          0.05000029	          0.21774301	          0.09761865	          0.05000135	          0.05000062	          0.05000039	          0.05000030	          0.26097551	          0.44551237	          0.05000010	          0.05000032	          0.05000013	          0.20704411	          0.11412777	          0.10216407	          0.12029840	          0.21588142	          0.27863162	          0.16716995	          0.15826400	          0.14240964	          0.19729212	          0.10458517	          0.12624017	          0.16559757	          0.05000051	          0.13554345	          0.05000042	          0.05006127	          0.05355195	          0.07192762	
          0.56802588	         -2.89194150	          1.69115414	         -6.16775386	          0.71686670	          0.85787482	          0.00150242	         30.04671126	          2.71227385	         -3.24885135	        -16.89359544	         -1.87570858	          7.16808815	        -18.02796881	        -14.50629310	          2.29853659	         -1.99780226	          1.45174289	         14.97022826	         -0.48969488	        -12.75905973	          1.18233808	         31.31061586	         -0.45496463	         -0.44422047	          2.01097344	        -11.04103599	        -13.59047716	         11.54399530	          4.82906162	        -13.56079862	         17.09815345	         14.62980097	         36.76702453	         86.51662706	         86.51662706	          0.05000003	          0.05000014	          0.18341735	          0.05000012	          0.05000010	          0.05000009	          0.05000107	          0.05000551	          0.15605592	          0.05000005	          0.05000016	          0.08258214	          0.18743617	          0.31054519	          0.27288760	          0.18507307	          0.05000024	          0.06985955	          0.11360843	          0.15356752	          0.15309413	          0.16226172	          0.05000004	          0.05000006	          0.29898465	          0.11752897	          0.10170890	          0.05910288	          0.27423517	          0.27262040	          0.23016282	          0.05000011	          0.05000016	          0.05000002	          0.05000001	          0.05000051	          0.05000018	          0.55827303	          0.24144545	          0.13639773	          0.54620221	          0.55628210	          0.24457652	          0.05000000	          0.06822368	          0.07861779	          0.17979420	          0.05910373	          0.05377355	          0.19390835	          0.12707449	          0.05910941	          0.05002094	          0.05910249	          0.06113544	          0.05000003	          0.05000319	          0.22195659	          0.38994350	          0.27024742	          0.13905877	          0.13639790	          0.18420660	          0.08258370	          0.05910423	          0.05007737	          0.05910481	          0.06986485	          0.22078035	          0.39567606	          0.06986288	          0.05910449	          0.05910291	          0.17515540	          0.09654993	          0.11527084	          0.10177042	          0.18263159	          0.23571707	          0.14142261	          0.13388839	          0.12047595	          0.16690548	          0.18950507	          0.11856378	          0.15588558	          0.05000036	          0.21226611	          0.09874705	          0.07156246	          0.06488477	          0.06405060	
          0.57894946	         -2.87170806	          1.77807990	         -6.32785624	          0.73404932	          0.85636872	          0.00130796	         29.11111955	          3.03595832	         -2.92237532	        -16.46210131	         -2.10572815	          6.95946064	        -18.42086961	        -16.94781376	          2.19619596	         -3.02523328	          0.87597877	         15.67439805	         -0.86771173	        -12.52011650	          1.29565357	         29.97904098	         -0.21802555	         -0.71348993	          2.06410336	        -12.08832418	        -13.61181402	         11.52924953	          4.39345056	        -13.61377004	         17.17184435	         14.53769670	         37.84124152	         86.51662706	         86.51662706	          0.29211752	          0.37371668	          0.52750533	          0.42214774	          0.30461722	          0.41911358	          0.07612615	          0.09747806	          0.13202040	          0.06986320	          0.05000051	          0.06986295	          0.15856747	          0.26271540	          0.23085782	          0.15716456	          0.05000014	          0.05910217	          0.09611083	          0.28864993	          0.22008306	          0.14909548	          0.05000047	          0.05000016	          0.25293539	          0.09942756	          0.28891091	          0.05000002	          0.29020663	          0.30666824	          0.25286250	          0.05000003	          0.05000007	          0.05000004	          0.05155006	          0.05000048	          0.05000081	          0.70391769	          0.20425828	          0.11538990	          0.47272622	          0.59281639	          0.38548622	          0.06313782	          0.08258236	          0.06650916	          0.22974808	          0.05000100	          0.05000008	          0.21594921	          0.10750301	          0.05000616	          0.05000321	          0.05000019	          0.05171947	          0.05000029	          0.06972317	          0.18777111	          0.32988484	          0.22862423	          0.11764117	          0.11539008	          0.27853707	          0.06986437	          0.05000177	          0.05000131	          0.05000200	          0.05910442	          0.18838502	          0.39061838	          0.05910270	          0.05000143	          0.05000012	          0.14817817	          0.08167943	          0.09751697	          0.08609586	          0.15450287	          0.19941219	          0.11964085	          0.11864545	          0.10192052	          0.14119923	          0.18149912	          0.11140727	          0.14810618	          0.08268715	          0.22851709	          0.08353827	          0.10507436	          0.05489129	          0.05418560	
